<?xml version="1.0" encoding="UTF-8" standalone="no"?>
<!-- Created with Inkscape (http://www.inkscape.org/) -->

<svg
   width="1920"
   height="1080"
   viewBox="0 0 1920 1080"
   version="1.1"
   id="svg5"
   inkscape:version="1.2.1 (9c6d41e410, 2022-07-14, custom)"
   sodipodi:docname="bse_logo_indep\.svg"
   xmlns:inkscape="http://www.inkscape.org/namespaces/inkscape"
   xmlns:sodipodi="http://sodipodi.sourceforge.net/DTD/sodipodi-0.dtd"
   xmlns="http://www.w3.org/2000/svg"
   xmlns:svg="http://www.w3.org/2000/svg">
  <sodipodi:namedview
     id="namedview7"
     pagecolor="#ffffff"
     bordercolor="#111111"
     borderopacity="1"
     inkscape:showpageshadow="0"
     inkscape:pageopacity="0"
     inkscape:pagecheckerboard="1"
     inkscape:deskcolor="#d1d1d1"
     inkscape:document-units="px"
     showgrid="false"
     inkscape:zoom="0.67916667"
     inkscape:cx="987.97546"
     inkscape:cy="512.39264"
     inkscape:window-width="1920"
     inkscape:window-height="1007"
     inkscape:window-x="0"
     inkscape:window-y="0"
     inkscape:window-maximized="1"
     inkscape:current-layer="layer1"
     showguides="true" />
  <defs
     id="defs2" />
  <g
     inkscape:label="Layer 1"
     inkscape:groupmode="layer"
     id="layer1">
    <g
       aria-label="BSE"
       id="text63"
       style="font-style:italic;font-weight:bold;font-size:866.667px;font-family:'DejaVu Sans';-inkscape-font-specification:'DejaVu Sans Bold Italic';fill:#00ffff">
      <path
         d="m 354.70321,346.49839 q 38.50913,0 58.39846,-16.92709 19.88933,-16.92709 19.88933,-49.93491 0,-32.58465 -19.88933,-49.51174 -19.88933,-17.35027 -58.39846,-17.35027 h -90.13675 v 133.72401 z m 5.50131,276.33474 q 49.08856,0 73.63284,-20.73569 24.96745,-20.73568 24.96745,-62.63023 0,-41.04819 -24.54428,-61.3607 -24.54428,-20.73568 -74.05601,-20.73568 h -95.63806 v 165.4623 z M 511.70197,395.58695 q 52.47398,15.23438 81.25003,56.28257 28.77605,41.0482 28.77605,100.71619 0,91.40628 -61.78388,136.26307 -61.78387,44.85679 -187.89069,44.85679 H 101.64322 V 101.90194 h 244.59645 q 131.60812,0 190.42976,39.77866 59.24481,39.77867 59.24481,127.37635 0,46.12632 -21.58204,78.71097 -21.58204,32.16147 -62.63023,47.81903 z"
         style="font-style:normal;-inkscape-font-specification:'DejaVu Sans Bold';fill:#000000"
         id="path397" />
      <path
         d="m 1201.904,121.79127 v 133.72401 q -52.0508,-23.27475 -101.5625,-35.12371 -49.5117,-11.84896 -93.5222,-11.84896 -58.39844,0 -86.32814,16.08073 -27.9297,16.08074 -27.9297,49.93492 0,25.39063 18.6198,39.77866 19.04298,13.96485 68.55471,24.1211 l 69.40103,13.96485 q 105.3712,21.15886 149.8048,64.32294 44.4336,43.16408 44.4336,122.7214 0,104.52478 -62.2071,155.72923 -61.7838,50.78127 -189.16019,50.78127 -60.09116,0 -120.60551,-11.42579 -60.51435,-11.42578 -121.02869,-33.85418 v -137.5326 q 60.51434,32.16147 116.79692,48.66538 56.70575,16.08074 109.17973,16.08074 53.32034,0 81.67324,-17.77345 28.3528,-17.77344 28.3528,-50.78127 0,-29.6224 -19.4661,-45.70314 -19.043,-16.08073 -76.59509,-28.77605 L 927.262,470.9125 Q 832.47029,450.59999 788.45986,406.16638 744.8726,361.73277 744.8726,286.40722 q 0,-94.36852 60.93753,-145.14979 60.93752,-50.781272 175.19538,-50.781272 52.05079,0 107.06379,8.040368 55.0131,7.617194 113.8347,23.274744 z"
         style="font-style:normal;-inkscape-font-specification:'DejaVu Sans Bold';fill:#000000"
         id="path399" />
      <path
         d="m 1386.4093,101.90194 h 439.6812 v 123.14458 h -276.7579 v 117.64327 h 260.254 v 123.14458 h -260.254 v 144.72662 h 286.0678 v 123.14458 h -448.9911 z"
         style="font-style:normal;-inkscape-font-specification:'DejaVu Sans Bold';fill:#000000"
         id="path401" />
    </g>
    <g
       aria-label="EST"
       id="text898"
       style="font-weight:bold;font-size:266.667px;font-family:'DejaVu Sans';-inkscape-font-specification:'DejaVu Sans Bold'">
      <path
         d="m 102.51601,798.28592 h 135.28662 v 37.89067 h -85.15635 v 36.19796 h 80.07822 v 37.89067 h -80.07822 v 44.5313 h 88.02094 v 37.89067 H 102.51601 Z"
         id="path404" />
      <path
         d="m 419.96431,804.40571 v 41.14589 q -16.01564,-7.16147 -31.25003,-10.80731 -15.2344,-3.64583 -28.77608,-3.64583 -17.96877,0 -26.56253,4.94792 -8.59376,4.94792 -8.59376,15.3646 0,7.81251 5.72917,12.2396 5.85938,4.29688 21.09378,7.42188 l 21.35419,4.29688 q 32.42191,6.51043 46.0938,19.79169 13.6719,13.28127 13.6719,37.76047 0,32.16149 -19.14065,47.91672 -19.01044,15.62502 -58.2032,15.62502 -18.4896,0 -37.10942,-3.51563 -18.61981,-3.51563 -37.23963,-10.41668 v -42.31776 q 18.61982,9.89585 35.93755,14.97398 17.44793,4.94792 33.59379,4.94792 16.40627,0 25.13024,-5.46875 8.72397,-5.46876 8.72397,-15.62502 0,-9.1146 -5.9896,-14.06252 -5.85938,-4.94792 -23.56773,-8.85418 L 335.459,911.82772 q -29.1667,-6.25001 -42.70838,-19.9219 -13.41148,-13.67189 -13.41148,-36.849 0,-29.0365 18.75003,-44.66151 18.75002,-15.62502 53.90631,-15.62502 16.01565,0 32.94275,2.47396 16.9271,2.34375 35.02608,7.16146 z"
         id="path406" />
      <path
         d="m 453.5581,798.28592 h 179.16689 v 37.89067 h -64.4532 v 156.5106 H 518.14152 V 836.17659 H 453.5581 Z"
         id="path408" />
    </g>
    <g
       aria-label="HOP"
       transform="scale(0.8969127,1.1149357)"
       id="text952"
       style="font-weight:bold;font-size:239.177px;font-family:'DejaVu Sans';-inkscape-font-specification:'DejaVu Sans Bold';stroke-width:0.896913">
      <path
         d="m 833.49434,715.99273 h 44.96247 v 66.45103 h 66.33425 v -66.45103 h 44.96247 V 890.3537 h -44.96247 v -73.92531 h -66.33425 v 73.92531 h -44.96247 z"
         id="path411" />
      <path
         d="m 1113.3127,745.42271 q -20.5542,0 -31.8824,15.18214 -11.3282,15.18213 -11.3282,42.74354 0,27.44463 11.3282,42.62676 11.3282,15.18214 31.8824,15.18214 20.6711,0 31.9993,-15.18214 11.3282,-15.18213 11.3282,-42.62676 0,-27.56141 -11.3282,-42.74354 -11.3282,-15.18214 -31.9993,-15.18214 z m 0,-32.58319 q 42.0429,0 65.8671,24.05784 23.8243,24.05784 23.8243,66.45103 0,42.27641 -23.8243,66.33425 -23.8242,24.05784 -65.8671,24.05784 -41.926,0 -65.8671,-24.05784 -23.8242,-24.05784 -23.8242,-66.33425 0,-42.39319 23.8242,-66.45103 23.9411,-24.05784 65.8671,-24.05784 z"
         id="path413" />
      <path
         d="m 1236.9887,715.99273 h 74.626 q 33.284,0 51.0354,14.83178 17.8682,14.71499 17.8682,42.04283 0,27.44463 -17.8682,42.2764 -17.7514,14.71499 -51.0354,14.71499 h -29.6635 v 60.49497 h -44.9625 z m 44.9625,32.5832 v 48.69961 h 24.8753 q 13.08,0 20.204,-6.30643 7.1239,-6.42321 7.1239,-18.10177 0,-11.67857 -7.1239,-17.98499 -7.124,-6.30642 -20.204,-6.30642 z"
         id="path415" />
    </g>
    <g
       aria-label="VER"
       transform="scale(0.88281192,1.1327441)"
       id="text1682"
       style="font-weight:bold;font-size:235.417px;font-family:'DejaVu Sans';-inkscape-font-specification:'DejaVu Sans Bold';stroke-width:0.882812">
      <path
         d="m 1570.9162,704.85115 h 44.4856 l 45.52,126.67458 45.4052,-126.67458 h 44.4855 l -63.5672,171.61992 h -52.7619 z"
         id="path418" />
      <path
         d="m 1773.5726,704.85115 h 119.4327 v 33.45037 h -75.1771 v 31.95602 h 70.6941 v 33.45036 h -70.6941 v 39.3128 h 77.706 v 33.45037 h -121.9616 z"
         id="path420" />
      <path
         d="m 1997.2647,780.94786 q 13.9089,0 19.8863,-5.17274 6.0923,-5.17273 6.0923,-17.01255 0,-11.72487 -6.0923,-16.78266 -5.9774,-5.05779 -19.8863,-5.05779 h -18.6218 v 44.02574 z m -18.6218,30.57662 v 64.94659 h -44.2557 V 704.85115 h 67.5904 q 33.9102,0 49.6583,11.38002 15.8631,11.38002 15.8631,35.97926 0,17.01256 -8.2764,27.93278 -8.1614,10.92022 -24.7142,16.09296 9.081,2.0691 16.2079,9.42588 7.2419,7.24183 14.5986,22.07034 l 24.0245,48.73868 H 2042.21 l -20.9208,-42.64634 q -6.3222,-12.87437 -12.8744,-17.58731 -6.4372,-4.71294 -17.2424,-4.71294 z"
         id="path422" />
    </g>
  </g>
</svg>
