<?xml version="1.0" encoding="UTF-8" standalone="no"?>
<svg
   fill="none"
   viewBox="0 0 164 32"
   version="1.1"
   id="svg163"
   sodipodi:docname="lc_logo_indep.svg"
   inkscape:version="1.2.1 (9c6d41e410, 2022-07-14, custom)"
   xmlns:inkscape="http://www.inkscape.org/namespaces/inkscape"
   xmlns:sodipodi="http://sodipodi.sourceforge.net/DTD/sodipodi-0.dtd"
   xmlns="http://www.w3.org/2000/svg"
   xmlns:svg="http://www.w3.org/2000/svg">
  <sodipodi:namedview
     id="namedview165"
     pagecolor="#ffffff"
     bordercolor="#111111"
     borderopacity="1"
     inkscape:showpageshadow="0"
     inkscape:pageopacity="0"
     inkscape:pagecheckerboard="1"
     inkscape:deskcolor="#d1d1d1"
     showgrid="false"
     inkscape:zoom="7.9512195"
     inkscape:cx="79.107362"
     inkscape:cy="14.08589"
     inkscape:window-width="1920"
     inkscape:window-height="1007"
     inkscape:window-x="0"
     inkscape:window-y="0"
     inkscape:window-maximized="1"
     inkscape:current-layer="svg163" />
  <defs
     id="defs157" />
  <path
     fill="#1976d2"
     fill-rule="evenodd"
     d="m 55.6,6.3 -1.6,9 V 16 c 0,1.3 1,2.3 2.5,2.3 1.3,0 2.6,-0.8 2.8,-2.4 L 61,6.3 h 6.5 l -3,17 c -1,5.7 -5,8.7 -10,8.7 -3.4,0 -7,-1.3 -9.5,-4.2 l 3.7,-4.4 0.8,0.7 c 1.5,1.2 3,2.1 5,2.1 1.8,0 3.1,-0.8 3.6,-3 v -0.7 c -1.266844,0.862494 -2.767509,1.316183 -4.3,1.3 -4,0 -6.5,-2.8 -6.5,-6.3 l 0.2,-2 1.6,-9.2 z m -33,0 c 5.3,0 8.5,3.8 8.5,8.1 0,1.4 -0.4,2.8 -0.8,3.8 H 18.5 c 0.6,1.5 2,2.1 4,2.1 1.760862,-0.01829 3.485672,-0.501234 5,-1.4 l 2,4.3 c -2.207538,1.611544 -4.86685,2.486318 -7.6,2.5 -6,0 -9.9,-3.9 -9.9,-9.1 C 12,10.9 16.7,6.3 22.6,6.3 Z M 9.6,0 l -1,6.7 -1,5.4 -0.9,5.2 v 0.8 c 0,1.6 1.3,2 3.6,2 h 1.5 l -1,5.4 -2.3,0.2 c -3.6,0 -8.4,-1 -8.4,-6.4 0,-0.6 0,-1.3 0.2,-2 L 1.3,12.1 3.1,0 Z M 43,0 42,6.3 h 4.9 l -1,5.3 h -5 l -1,5.7 v 0.8 c 0,1.6 1.3,2 3.7,2 H 45 l -1,5.4 -2.3,0.2 c -3.6,0 -8.4,-1 -8.4,-6.4 l 0.1,-2 1,-5.7 h -2.8 l 0.9,-5.3 h 2.9 L 36.6,0 Z M 22.3,11.3 c -1.6,0 -3,1 -3.6,2.8 h 6.5 c 0,-1.8 -1.4,-2.8 -3,-2.8 z"
     clip-rule="evenodd"
     id="path159"
     sodipodi:nodetypes="ccssccccscccscccccccssccccccssccccsscccsccccccccccsscccccccccccccccc" />
  <path
     d="m 151.97025,6.2723925 c 5.3,0 8.5,3.8000005 8.5,8.1000005 0,1.4 -0.4,2.8 -0.8,3.8 h -11.8 c 0.6,1.5 2,2.1 4,2.1 1.76086,-0.01829 3.48567,-0.501234 5,-1.4 l 2,4.3 c -2.20754,1.611544 -4.86685,2.486318 -7.6,2.5 -6,0 -9.90001,-3.9 -9.90001,-9.1 0,-5.7 4.70001,-10.3000005 10.60001,-10.3000005 z m -0.3,5.0000005 c -1.6,0 -3,1 -3.6,2.8 h 6.5 c 0,-1.8 -1.4,-2.8 -3,-2.8 z"
     style="clip-rule:evenodd;fill:#fcd31b;fill-rule:evenodd;fill-opacity:1"
     id="path3435" />
  <path
     d="m 95.585578,-0.14754633 -1,6.69999993 -1,5.4000004 -0.9,5.2 v 0.8 c 0,1.6 1.3,2 3.6,2 h 1.5 l -1,5.4 -2.3,0.2 c -3.6,0 -8.399996,-1 -8.399996,-6.4 0,-0.6 0,-1.3 0.2,-2 l 1,-5.2 1.8,-12.10000033 z"
     style="clip-rule:evenodd;fill:#fcd31b;fill-opacity:1;fill-rule:evenodd"
     id="path3468" />
  <path
     d="M 86.423777,7.0595205 85.468988,11.95072 q -1.206049,-0.804033 -2.378597,-1.2228 -1.172548,-0.418767 -2.294844,-0.418767 -2.931369,0 -4.790695,1.976581 -1.859326,1.95983 -1.859326,5.025205 0,1.95983 1.155797,3.048625 1.155797,1.072043 3.266383,1.072043 1.407058,0 2.763863,-0.418767 1.356806,-0.418767 2.579606,-1.23955 l -0.921288,4.90795 q -1.490811,0.519271 -2.998372,0.770531 -1.507562,0.268011 -3.031874,0.268011 -4.422181,0 -6.817529,-1.97658 -2.378597,-1.993332 -2.378597,-5.644981 0,-2.294843 0.871036,-4.455682 0.887786,-2.160838 2.529353,-3.8861584 1.825825,-1.8928273 4.187671,-2.8141149 2.361847,-0.9212877 5.443972,-0.9212877 1.423809,0 2.830866,0.268011 1.407057,0.2512603 2.797364,0.7705315 z"
     id="path397"
     style="font-style:italic;font-weight:bold;font-size:34.3054px;font-family:'DejaVu Sans';-inkscape-font-specification:'DejaVu Sans Bold Italic';fill:#fcd31b;stroke-width:0.857635" />
  <path
     d="m 109.77242,10.555701 q -2.28296,0 -3.76114,2.069445 -1.47817,2.069446 -1.47817,5.272159 0,1.740962 0.78836,2.660715 0.80478,0.90333 2.33223,0.90333 2.28296,0 3.76113,-2.069446 1.47818,-2.085869 1.47818,-5.305007 0,-1.724537 -0.80479,-2.627867 -0.78836,-0.903329 -2.3158,-0.903329 z m 0.4763,-4.2045875 q 4.10604,0 6.4547,2.0858696 2.34865,2.0858699 2.34865,5.6827629 0,2.085869 -0.73909,4.05677 -0.73908,1.954476 -2.15156,3.580469 -1.67527,1.938052 -3.95823,2.923502 -2.28296,0.98545 -5.09149,0.98545 -4.05677,0 -6.40543,-2.085869 -2.332228,-2.08587 -2.332228,-5.682763 0,-2.069446 0.755512,-4.040346 0.755511,-1.987324 2.167986,-3.629741 1.64242,-1.9052041 3.90896,-2.8906543 2.28296,-0.9854502 5.04222,-0.9854502 z"
     id="path401"
     style="font-style:italic;font-weight:bold;font-size:33.6367px;font-family:'DejaVu Sans';-inkscape-font-specification:'DejaVu Sans Bold Italic';fill:#fcd31b;stroke-width:1.05115" />
  <path
     d="m 140.39096,14.228602 -2.25313,11.553605 h -6.08173 l 1.91431,-9.89341 q 0.20328,-0.965624 0.30493,-1.626314 0.11858,-0.67763 0.11858,-1.067268 0,-1.084209 -0.60986,-1.677136 -0.59293,-0.592927 -1.69408,-0.592927 -1.88043,0 -3.23569,1.473847 -1.33832,1.456906 -1.86348,4.048844 l -1.82961,9.334364 h -6.08173 l 3.69309,-18.9736627 h 6.09867 l -0.55904,2.7782864 q 1.67713,-1.6432547 3.37121,-2.4394709 1.69408,-0.7962163 3.54062,-0.7962163 2.62582,0 4.04885,1.3722025 1.42302,1.3722024 1.42302,3.862496 0,0.542104 -0.0847,1.202794 -0.0678,0.66069 -0.22023,1.439966 z"
     id="path404"
     style="font-style:italic;font-weight:bold;font-size:34.6947px;font-family:'DejaVu Sans';-inkscape-font-specification:'DejaVu Sans Bold Italic';fill:#fcd31b;stroke-width:1.08421" />
</svg>
